<svg width="0" height="0" class="hidden">
  <symbol version="1.0" xmlns="http://www.w3.org/2000/svg" preserveAspectRatio="xMidYMid meet" viewBox="0 0 820.000000 512.000000" id="chevron">
    <g transform="translate(0.000000,512.000000) scale(0.100000,-0.100000)" fill="#000000" stroke="none">
      <path d="M1705 4041 c-107 -49 -153 -163 -110 -269 11 -26 192 -214 593 -614
l577 -578 -592 -592 c-624 -625 -633 -635 -633 -723 0 -142 158 -245 285 -186
58 26 1390 1358 1416 1415 24 52 24 120 0 171 -13 27 -232 253 -687 707 -575
572 -675 668 -709 677 -57 15 -94 13 -140 -8z m748 -799 c356 -356 647 -654
647 -662 0 -8 -301 -316 -668 -683 -562 -562 -673 -668 -693 -665 -17 2 -25
10 -27 28 -2 21 97 125 643 670 l645 645 -630 630 c-347 347 -630 637 -630
646 0 21 20 39 45 39 14 0 230 -210 668 -648z"></path>
      <path d="M3393 4035 c-71 -36 -106 -89 -111 -169 -3 -46 1 -72 13 -97 9 -19
276 -294 593 -611 l577 -578 -597 -597 c-414 -415 -602 -609 -613 -635 -54
-131 50 -288 190 -288 79 0 70 -8 789 708 469 469 694 700 707 727 24 51 24
119 0 170 -13 27 -231 251 -687 706 -577 574 -675 667 -710 677 -62 18 -95 15
-151 -13z m760 -793 c356 -356 647 -654 647 -662 0 -8 -300 -315 -667 -682
-484 -484 -674 -668 -690 -668 -20 0 -43 25 -43 47 0 4 291 299 647 655 l648
648 -628 628 c-345 345 -627 634 -627 643 0 21 20 39 45 39 14 0 230 -210 668
-648z"></path>
      <path d="M5115 4048 c-101 -35 -156 -135 -133 -243 10 -49 21 -61 596 -638
l587 -587 -597 -598 c-414 -414 -602 -608 -613 -634 -19 -46 -19 -118 -1 -161
27 -65 115 -126 182 -127 90 0 77 -12 811 723 726 727 713 712 713 796 0 84
10 72 -684 769 -693 694 -714 713 -795 711 -20 0 -49 -5 -66 -11z m732 -800
c509 -509 643 -648 643 -668 0 -20 -138 -163 -662 -687 -447 -447 -670 -663
-683 -663 -25 0 -45 18 -45 39 0 9 291 307 647 663 l648 648 -628 628 c-345
345 -627 634 -627 643 0 21 20 39 44 39 14 0 235 -214 663 -642z"></path>
    </g>
  </symbol>
</svg>